<svg viewBox="0 0 32 32" fill="none" xmlns="http://www.w3.org/2000/svg">
  <!-- Hull -->
  <path d="M4 22 Q5 21 6 21 L26 21 Q27 21 28 22 L26.5 25 Q23 27 16 27 Q9 27 5.5 25 Z" fill="white" fill-opacity="0.9"/>

  <!-- Main mast -->
  <line x1="16" y1="3" x2="16" y2="21" stroke="white" stroke-width="1" stroke-linecap="round"/>
  <!-- Fore mast -->
  <line x1="10" y1="6" x2="10" y2="20" stroke="white" stroke-width="0.8" stroke-linecap="round"/>
  <!-- Mizzen mast -->
  <line x1="23" y1="7" x2="23" y2="20" stroke="white" stroke-width="0.8" stroke-linecap="round"/>

  <!-- Main sail -->
  <path d="M11 6 Q16 5 16 6 L16 15 Q16 16 11 15 Z" fill="white" fill-opacity="0.35"/>
  <!-- Fore sail -->
  <path d="M6 8 Q10 7 10 8 L10 15 Q10 16 6 15 Z" fill="white" fill-opacity="0.3"/>
  <!-- Mizzen sail -->
  <path d="M17 8 Q23 7 23 8 L23 15 Q23 16 17 15 Z" fill="white" fill-opacity="0.3"/>

  <!-- Jib (front triangle) -->
  <path d="M5 18 L10 6 L10 18 Z" fill="white" fill-opacity="0.25"/>
  <!-- Spanker (rear triangle) -->
  <path d="M23 8 L27 16 L23 19 Z" fill="white" fill-opacity="0.25"/>

  <!-- Flag -->
  <path d="M16 3 L16 1 L19 1.8 L16 2.6" fill="white" fill-opacity="0.7" stroke="white" stroke-width="0.3"/>

  <!-- Wave -->
  <path d="M2 28 Q6 26 10 28 Q14 30 18 28 Q22 26 26 28 Q30 30 32 28" stroke="white" stroke-width="0.8" stroke-opacity="0.3" fill="none"/>
</svg>
